<?xml version="1.0" encoding="utf-8"?>
<!-- Generator: Adobe Illustrator 25.2.3, SVG Export Plug-In . SVG Version: 6.00 Build 0)  -->
<svg version="1.1" id="Layer_3" xmlns="http://www.w3.org/2000/svg" xmlns:xlink="http://www.w3.org/1999/xlink" x="0px" y="0px"
	 viewBox="0 0 64 64" style="enable-background:new 0 0 64 64;" xml:space="preserve">
<style type="text/css">
	.st0{fill:#CCCCCC;}
	.st1{fill:#E6E6E5;}
	.st2{fill:#FFFFFF;}
	.st3{fill:#4179B3;}
	.st4{fill:#6598C5;}
	.st5{fill:#5B5B5D;}
	.st6{fill:#646465;}
	.st7{fill:#8A3B2E;}
	.st8{fill:#AD4A39;}
	.st9{fill:#5BA863;}
	.st10{fill:#93D46C;}
	.st11{fill:#F2B149;}
	.st12{fill:#F7D771;}
	.st13{fill:#999999;}
	.st14{fill:#315B86;}
	.st15{fill:#FBE087;}
	.st16{fill:#447E4A;}
	.st17{fill:#82382B;}
	.st18{fill:#838384;}
	.st19{fill:#939393;}
	.st20{fill:#BEBEBE;}
	.st21{fill:#A2A2A3;}
	.st22{fill:#E0E0E0;}
	.st23{fill:#BDBDBD;}
	.st24{fill:#EEAB46;}
	.st25{fill:#F3C14F;}
	.st26{fill:#F7E2CD;}
	.st27{fill:#B9AA9A;}
</style>
<g>
	<path class="st5" d="M58,50H6c-2.2,0-4-1.8-4-4V6c0-2.2,1.8-4,4-4h52c2.2,0,4,1.8,4,4v40C62,48.2,60.2,50,58,50z"/>
	<rect x="6" y="6" class="st0" width="52" height="36"/>
	<path class="st1" d="M6,6v33h44c2.8,0,5-2.2,5-5V6H6z"/>
	<path class="st2" d="M47,37H13c-1.7,0-3-1.3-3-3V13c0-1.7,1.3-3,3-3h34c1.7,0,3,1.3,3,3v21C50,35.7,48.7,37,47,37z"/>
	<rect x="12" y="30" class="st3" width="40" height="8"/>
	<path class="st4" d="M12,30v6h36c1.1,0,2-0.9,2-2v-4H12z"/>
	<rect x="6" y="6" class="st3" width="52" height="8"/>
	<path class="st4" d="M6,6v5h47c1.1,0,2-0.9,2-2V6H6z"/>
	<path class="st5" d="M48,62H16v-1c0-1.7,1.3-3,3-3h26c1.7,0,3,1.3,3,3V62z"/>
	<polygon class="st6" points="41,50 23,50 21,58 43,58 	"/>
	<g>
		<rect x="51" y="45" class="st6" width="2" height="2"/>
	</g>
	<g>
		<rect x="55" y="45" class="st6" width="2" height="2"/>
	</g>
	<g>
		<rect x="53" y="9" class="st2" width="2" height="2"/>
	</g>
	<g>
		<rect x="49" y="9" class="st2" width="2" height="2"/>
	</g>
	<g>
		<rect x="45" y="9" class="st2" width="2" height="2"/>
	</g>
	<g>
		<path class="st3" d="M26,17c-2.2,0-4,1.8-4,4v7h2v-3h4v3h2v-7C30,18.8,28.2,17,26,17z M24,23v-2c0-1.1,0.9-2,2-2s2,0.9,2,2v2H24z"
			/>
		<path class="st3" d="M36.5,17H33c-0.6,0-1,0.4-1,1v10h2v-4h2.5c1.9,0,3.5-1.6,3.5-3.5S38.4,17,36.5,17z M36.5,22H34v-3h2.5
			c0.8,0,1.5,0.7,1.5,1.5S37.3,22,36.5,22z"/>
		<rect x="41" y="17" class="st3" width="2" height="11"/>
	</g>
	<g>
		<rect x="15" y="33" class="st2" width="30" height="2"/>
	</g>
	<g>
		<rect x="47" y="33" class="st2" width="2" height="2"/>
	</g>
</g>
</svg>
